<?xml version="1.0" standalone="no"?>
<!DOCTYPE svg PUBLIC "-//W3C//DTD SVG 20010904//EN"
 "http://www.w3.org/TR/2001/REC-SVG-20010904/DTD/svg10.dtd">
<svg version="1.0" xmlns="http://www.w3.org/2000/svg"
 width="700.000000pt" height="700.000000pt" viewBox="0 0 700.000000 700.000000"
 preserveAspectRatio="xMidYMid meet">
<metadata>
Created by potrace 1.11, written by Peter Selinger 2001-2013
</metadata>
<g transform="translate(0.000000,700.000000) scale(0.100000,-0.100000)"
fill="#000000" stroke="none">
<path d="M3440 6139 c-101 -321 -166 -474 -270 -634 -168 -257 -450 -563
-1064 -1154 -507 -488 -572 -564 -686 -795 -101 -207 -127 -330 -116 -556 15
-320 90 -495 294 -692 206 -197 385 -268 675 -268 395 0 703 158 948 485 25
33 73 101 108 151 67 100 104 144 121 144 15 0 13 -149 -5 -313 -54 -511 -197
-843 -481 -1118 -271 -261 -523 -370 -1029 -444 -176 -26 -215 -43 -215 -97 0
-39 26 -47 185 -58 170 -12 2990 -12 3160 0 164 11 185 18 185 63 0 63 -3 64
-388 137 -380 73 -672 219 -907 455 -160 160 -228 280 -308 545 -76 249 -110
481 -105 714 l3 148 89 -132 c116 -173 183 -255 297 -365 136 -132 278 -227
403 -272 114 -40 446 -57 578 -28 226 47 490 249 624 475 93 157 126 356 103
625 -14 178 -37 265 -98 390 -100 200 -262 390 -858 1000 -469 481 -555 572
-688 730 -221 263 -306 417 -445 809 l-68 189 -42 -134z"/>
</g>
</svg>
