<svg width="76" height="36" viewBox="0 0 76 36" fill="none" xmlns="http://www.w3.org/2000/svg">
<path d="M0.119141 24.9238L1.94727 24.6602L9.73438 2.40625H14.9902L22.7246 24.6602L24.5527 24.9238V28H15.834V24.9238L17.6094 24.6074L16.4844 21.0918H8.1875L7.0625 24.6074L8.83789 24.9238V28H0.119141V24.9238ZM9.40039 17.3125H15.2715L12.3887 8.29492H12.2832L9.40039 17.3125ZM25.8359 3.67188V0.578125H33.7109V24.3965L36.1895 24.9238V28H26.0996V24.9238L28.5781 24.3965V4.19922L25.8359 3.67188ZM57.5645 12.0742L55.7891 12.3379L48.793 30.8477C48.2422 32.2188 47.5039 33.3672 46.5781 34.293C45.6641 35.2188 44.2812 35.6816 42.4297 35.6816C41.9961 35.6816 41.5859 35.6465 41.1992 35.5762C40.8242 35.5059 40.3789 35.4062 39.8633 35.2773L40.4609 31.5332C40.625 31.5566 40.7949 31.5801 40.9707 31.6035C41.1465 31.627 41.2988 31.6387 41.4277 31.6387C42.2832 31.6387 42.9395 31.4277 43.3965 31.0059C43.8535 30.5957 44.2051 30.0801 44.4512 29.459L45.0312 28.0176L39.002 12.3555L37.2266 12.0742V8.98047H46.543V12.0742L44.416 12.4258L47.0176 20.0195L47.2812 21.3906L47.3867 21.4082L50.3926 12.4258L48.248 12.0742V8.98047H57.5645V12.0742ZM74.7031 15.5195H71.2578L70.7129 13.1465C70.3613 12.8652 69.916 12.6309 69.377 12.4434C68.8496 12.2559 68.2637 12.1621 67.6191 12.1621C66.7168 12.1621 66.002 12.3672 65.4746 12.7773C64.9473 13.1758 64.6836 13.6797 64.6836 14.2891C64.6836 14.8633 64.9355 15.3438 65.4395 15.7305C65.9434 16.1055 66.9512 16.4395 68.4629 16.7324C70.8184 17.2012 72.5645 17.8926 73.7012 18.8066C74.8379 19.709 75.4062 20.957 75.4062 22.5508C75.4062 24.2617 74.668 25.6621 73.1914 26.752C71.7266 27.8301 69.793 28.3691 67.3906 28.3691C65.9258 28.3691 64.5781 28.1582 63.3477 27.7363C62.1289 27.3027 61.0449 26.6875 60.0957 25.8906L60.043 21.6191H63.6289L64.332 24.0977C64.6367 24.3555 65.0527 24.5488 65.5801 24.6777C66.1074 24.7949 66.6582 24.8535 67.2324 24.8535C68.2754 24.8535 69.0664 24.666 69.6055 24.291C70.1562 23.916 70.4316 23.4062 70.4316 22.7617C70.4316 22.1992 70.1562 21.7129 69.6055 21.3027C69.0547 20.8926 68.041 20.5293 66.5645 20.2129C64.3262 19.7559 62.6328 19.082 61.4844 18.1914C60.3477 17.2891 59.7793 16.0645 59.7793 14.5176C59.7793 12.9238 60.4355 11.5527 61.748 10.4043C63.0605 9.24414 64.9297 8.66406 67.3555 8.66406C68.832 8.66406 70.2266 8.86328 71.5391 9.26172C72.8633 9.66016 73.9004 10.1699 74.6504 10.791L74.7031 15.5195Z" fill="#333333"/>
</svg>
