<?xml version="1.0" standalone="no"?>
<!DOCTYPE svg PUBLIC "-//W3C//DTD SVG 20010904//EN"
 "http://www.w3.org/TR/2001/REC-SVG-20010904/DTD/svg10.dtd">
<svg version="1.0" xmlns="http://www.w3.org/2000/svg"
 width="20px" height="20px" viewBox="0 0 760.000000 760.000000"
 preserveAspectRatio="xMidYMid meet">
<metadata>
Created by potrace 1.11, written by Peter Selinger 2001-2013
</metadata>
<g transform="translate(0.000000,760.000000) scale(0.100000,-0.100000)"
fill="#fff" stroke="none">
<path d="M3785 7518 c-24 -82 -148 -458 -172 -523 -10 -27 -21 -51 -25 -53 -5
-2 -8 -11 -8 -21 0 -9 -7 -27 -16 -39 -8 -12 -13 -22 -11 -22 3 0 -17 -41 -44
-92 -27 -51 -49 -96 -49 -100 0 -4 -4 -8 -10 -8 -5 0 -10 -5 -10 -12 0 -9
-131 -213 -162 -253 -4 -5 -38 -48 -75 -95 -79 -100 -148 -181 -262 -309 -128
-144 -538 -559 -772 -783 -73 -69 -297 -281 -428 -404 -46 -44 -115 -109 -154
-146 -39 -38 -75 -68 -79 -68 -4 0 -8 -3 -8 -7 0 -5 -67 -76 -148 -158 -81
-83 -158 -166 -172 -185 -14 -19 -33 -42 -43 -53 -34 -35 -144 -212 -195 -312
-96 -192 -126 -266 -154 -380 -19 -79 -22 -118 -22 -315 0 -124 3 -250 7 -280
4 -30 9 -67 11 -82 3 -15 11 -56 20 -90 63 -252 183 -447 387 -631 90 -81 90
-81 129 -108 19 -13 42 -31 52 -40 10 -9 31 -22 46 -30 15 -8 29 -17 32 -20
21 -25 253 -114 326 -125 22 -3 50 -7 64 -10 123 -23 441 -22 580 1 451 77
806 318 1097 746 32 46 81 118 108 158 28 40 70 94 94 120 l44 46 12 -28 c13
-33 10 -157 -10 -362 -3 -22 -6 -60 -9 -85 -7 -81 -17 -155 -21 -170 -2 -8 -7
-35 -10 -60 -3 -25 -8 -52 -11 -61 -3 -10 -7 -30 -9 -45 -2 -16 -9 -49 -16
-74 -6 -25 -12 -52 -14 -60 -3 -13 -31 -118 -39 -145 -2 -5 -6 -17 -9 -25 -3
-8 -15 -44 -28 -80 -67 -200 -185 -415 -321 -587 -67 -86 -222 -243 -308 -313
-30 -25 -60 -49 -67 -55 -7 -5 -18 -15 -25 -20 -42 -34 -199 -131 -256 -158
-37 -18 -74 -37 -82 -42 -8 -6 -28 -15 -45 -21 -16 -6 -67 -25 -113 -42 -45
-18 -93 -34 -105 -37 -12 -3 -65 -17 -117 -31 -52 -14 -106 -28 -120 -30 -14
-3 -45 -10 -70 -15 -47 -11 -80 -17 -140 -24 -19 -2 -35 -4 -35 -5 0 -2 -35
-8 -85 -15 -231 -30 -315 -51 -344 -86 -13 -15 -22 -38 -21 -51 1 -13 3 -29 4
-35 0 -7 16 -19 35 -27 88 -37 335 -41 2441 -41 1722 0 2223 4 2315 20 14 2
41 6 61 9 52 8 65 14 77 40 21 47 3 100 -42 120 -41 19 -153 45 -256 60 -19 3
-46 8 -60 11 -14 3 -41 7 -60 10 -36 5 -121 18 -130 20 -3 1 -23 5 -45 9 -22
5 -65 14 -95 21 -30 8 -66 16 -80 18 -14 3 -80 23 -147 46 -453 152 -871 444
-1083 756 -19 28 -42 59 -52 70 -9 11 -18 25 -19 30 -1 6 -19 44 -39 87 -21
42 -40 84 -43 95 -3 10 -20 56 -37 103 -52 146 -122 410 -151 570 -35 204 -40
259 -46 540 l-5 235 21 -22 c12 -12 21 -26 21 -31 0 -4 8 -17 18 -28 24 -27
62 -82 62 -89 0 -3 5 -11 10 -18 6 -7 45 -62 88 -122 81 -116 82 -118 178
-229 203 -235 487 -447 699 -523 56 -20 80 -26 160 -39 133 -22 182 -25 355
-28 194 -3 321 11 415 46 73 26 239 108 243 120 2 4 9 8 16 8 23 0 212 146
287 222 124 124 187 208 256 338 42 80 95 215 87 223 -2 2 0 15 5 28 17 45 26
193 25 399 -1 187 -11 297 -39 425 -4 17 -8 35 -9 40 -1 6 -4 15 -7 20 -4 6
-9 22 -13 37 -3 15 -11 40 -18 55 -6 15 -12 30 -13 33 -11 36 -96 192 -140
256 -34 50 -128 179 -134 184 -4 3 -17 18 -29 34 -25 32 -103 123 -172 200
-163 180 -312 335 -800 826 -432 434 -607 615 -745 765 -49 54 -97 105 -105
114 -8 9 -53 61 -98 116 -46 55 -91 109 -101 120 -9 11 -32 43 -51 70 -19 28
-38 52 -41 55 -10 9 -86 125 -85 130 0 3 -14 26 -32 52 -45 66 -131 241 -187
383 -26 66 -51 129 -56 140 -4 11 -36 99 -70 195 -76 216 -70 200 -78 200 -4
0 -16 -28 -26 -62z"/>
</g>
</svg>
